<svg width="66" height="69" viewBox="0 0 66 69" fill="none" xmlns="http://www.w3.org/2000/svg">
<g clip-path="url(#clip0)">
<path d="M63.1011 5.96521H2.89888C1.29813 5.96521 0 7.29123 0 8.92637V49.9182C0 51.5538 1.29813 52.8793 2.89888 52.8793H25.8759V58.0548H23.1397C21.762 58.0548 20.6446 59.1956 20.6446 60.6034C20.6446 62.0107 21.762 63.1521 23.1397 63.1521H42.8603C44.2385 63.1521 45.3554 62.0107 45.3554 60.6034C45.3554 59.1956 44.238 58.0548 42.8603 58.0548H40.1241V52.8793H63.1011C64.7019 52.8793 66 51.5538 66 49.9182V8.92637C66 7.29123 64.7019 5.96521 63.1011 5.96521V5.96521ZM43.4228 60.6034C43.4228 60.9208 43.171 61.178 42.8603 61.178H23.1397C22.829 61.178 22.5772 60.9208 22.5772 60.6034C22.5772 60.2861 22.829 60.0289 23.1397 60.0289H42.8598C43.1705 60.0289 43.4228 60.2861 43.4228 60.6034ZM64.0674 49.9182C64.0674 50.4623 63.6339 50.9052 63.1011 50.9052H32.8066C32.2729 50.9052 31.8403 51.347 31.8403 51.8923C31.8403 52.4375 32.2729 52.8793 32.8066 52.8793H38.191V58.0548H27.809V52.8793H28.2969C28.8307 52.8793 29.2632 52.4375 29.2632 51.8923C29.2632 51.347 28.8307 50.9052 28.2969 50.9052H2.89888C2.36613 50.9052 1.93259 50.4623 1.93259 49.9182V8.92637C1.93259 8.38218 2.36613 7.93932 2.89888 7.93932H63.1011C63.6339 7.93932 64.0674 8.38218 64.0674 8.92637V49.9182Z" fill="white"/>
<path d="M60.4423 10.4122H5.55344C4.6657 10.4122 3.94312 11.1498 3.94312 12.0571V45.0692C3.94312 45.976 4.6657 46.7141 5.55344 46.7141H60.4423C61.3301 46.7141 62.0527 45.976 62.0527 45.0692V12.0571C62.0527 11.1498 61.3301 10.4122 60.4423 10.4122ZM12.8754 12.3863V23.3761H9.48357C8.94931 23.3761 8.51677 23.8179 8.51677 24.3632C8.51677 24.9084 8.94931 25.3502 9.48357 25.3502H12.8754V30.8744C12.8754 31.056 12.7309 31.2036 12.5531 31.2036H5.8757V12.3863H12.8754ZM5.8757 44.74V33.1777H12.5531C13.7964 33.1777 14.808 32.1444 14.808 30.8744V12.3863H60.1201V31.1486H52.926C52.7487 31.1486 52.6042 31.001 52.6042 30.8194V15.9472C52.6042 15.402 52.1712 14.9597 51.6374 14.9597C51.1037 14.9597 50.6711 15.4015 50.6711 15.9472V30.8194C50.6711 32.0893 51.6827 33.1227 52.926 33.1227H60.1201V44.74H5.8757Z" fill="white"/>
<path d="M58.3864 39.9056H50.5669C50.152 38.5122 48.8831 37.4954 47.3851 37.4954C45.887 37.4954 44.6176 38.5122 44.2027 39.9056H20.4014C19.9864 38.5122 18.717 37.4954 17.219 37.4954C15.7215 37.4954 14.452 38.5122 14.0371 39.9056H8.0742C7.54045 39.9056 7.10791 40.3475 7.10791 40.8927C7.10791 41.4379 7.54045 41.8803 8.0742 41.8803H14.0366C14.4515 43.2737 15.721 44.2906 17.219 44.2906C18.717 44.2906 19.9864 43.2737 20.4014 41.8803H44.2027C44.6176 43.2737 45.887 44.2906 47.3846 44.2906C48.8826 44.2906 50.152 43.2737 50.5669 41.8803H58.3859C58.9197 41.8803 59.3522 41.4379 59.3522 40.8927C59.3527 40.3475 58.9197 39.9056 58.3864 39.9056ZM17.219 42.3159C16.4511 42.3159 15.8262 41.6776 15.8262 40.8927C15.8262 40.1078 16.4511 39.4695 17.219 39.4695C17.9874 39.4695 18.6123 40.1078 18.6123 40.8927C18.6123 41.6776 17.9874 42.3159 17.219 42.3159ZM47.3851 42.3159C46.6167 42.3159 45.9918 41.6776 45.9918 40.8927C45.9918 40.1078 46.6167 39.4695 47.3851 39.4695C48.153 39.4695 48.7779 40.1078 48.7779 40.8927C48.7779 41.6776 48.153 42.3159 47.3851 42.3159Z" fill="white"/>
<path d="M58.3864 35.0696H30.2038C29.7889 33.6762 28.5194 32.6593 27.0214 32.6593C25.5239 32.6593 24.2545 33.6762 23.8395 35.0696H8.0742C7.54045 35.0696 7.10791 35.5114 7.10791 36.0566C7.10791 36.6024 7.54045 37.0442 8.0742 37.0442H23.8395C24.2545 38.4376 25.5239 39.4545 27.0214 39.4545C28.5194 39.4545 29.7889 38.4376 30.2038 37.0442H58.3859C58.9197 37.0442 59.3527 36.6024 59.3527 36.0566C59.3527 35.5114 58.9197 35.0696 58.3864 35.0696ZM27.0214 37.4799C26.254 37.4799 25.6291 36.8421 25.6286 36.0582C25.6286 36.0577 25.6286 36.0571 25.6286 36.0566C25.6286 36.0561 25.6286 36.0561 25.6286 36.0556C25.6291 35.2712 26.254 34.6334 27.0214 34.6334C27.7898 34.6334 28.4147 35.2717 28.4147 36.0566C28.4147 36.8415 27.7898 37.4799 27.0214 37.4799Z" fill="white"/>
<path d="M27.6994 31.8071C28.0524 32.0154 28.4397 32.1193 28.8274 32.1193C29.2141 32.1193 29.6013 32.0154 29.9543 31.8071L41.7477 24.8519C42.4537 24.4358 42.8751 23.69 42.8751 22.8573C42.8751 22.025 42.4537 21.2792 41.7477 20.8626L29.9543 13.9074C29.2488 13.4913 28.4054 13.4913 27.6994 13.9074C26.9935 14.3241 26.572 15.0699 26.572 15.9021V29.8124C26.572 30.6452 26.9935 31.391 27.6994 31.8071ZM28.5051 15.9021C28.5051 15.737 28.6058 15.6526 28.6657 15.6172C28.7015 15.5961 28.7584 15.5714 28.8279 15.5714C28.8762 15.5714 28.9306 15.5832 28.988 15.6172L40.7814 22.5723C40.9214 22.6546 40.942 22.7863 40.942 22.8573C40.942 22.9282 40.9214 23.0594 40.7814 23.1422L28.988 30.0974C28.848 30.1802 28.7262 30.1329 28.6657 30.0974C28.6058 30.0619 28.5051 29.9775 28.5051 29.8124V15.9021Z" fill="white"/>
</g>
<defs>
<clipPath id="clip0">
<rect y="0.830078" width="66" height="67.418" fill="white"/>
</clipPath>
</defs>
</svg>
