<svg width="66" height="69" viewBox="0 0 66 69" fill="none" xmlns="http://www.w3.org/2000/svg">
<path d="M43.3125 26.1116H41.25C41.25 28.3466 40.3808 30.4901 38.8336 32.0705C37.2865 33.651 35.188 34.5388 33 34.5388C30.812 34.5388 28.7135 33.651 27.1664 32.0705C25.6192 30.4901 24.75 28.3466 24.75 26.1116H22.6875C22.6907 28.722 23.6414 31.2384 25.3558 33.1743C27.0702 35.1101 29.4264 36.3278 31.9688 36.5919V40.8593H31.5171C30.8271 40.8591 30.1568 41.0946 29.6129 41.5282C29.0689 41.9619 28.6825 42.5688 28.5151 43.2526L27.8747 45.8703C27.8366 46.0256 27.8337 46.1878 27.8661 46.3444C27.8986 46.5011 27.9656 46.6481 28.062 46.7744C28.1585 46.9006 28.2818 47.0027 28.4227 47.0729C28.5636 47.1432 28.7182 47.1797 28.875 47.1797H37.125C37.2818 47.1797 37.4365 47.1432 37.5773 47.0729C37.7182 47.0027 37.8415 46.9006 37.938 46.7744C38.0344 46.6481 38.1014 46.5011 38.1339 46.3444C38.1663 46.1878 38.1634 46.0256 38.1253 45.8703L37.4849 43.2526C37.3175 42.5688 36.9311 41.9619 36.3871 41.5282C35.8432 41.0946 35.1729 40.8591 34.4829 40.8593H34.0312V36.5919C36.5736 36.3278 38.9298 35.1101 40.6442 33.1743C42.3586 31.2384 43.3093 28.722 43.3125 26.1116ZM35.4843 43.7646L35.805 45.0729H30.195L30.5157 43.7646C30.5714 43.5364 30.7003 43.3338 30.8817 43.1891C31.0632 43.0444 31.2869 42.9659 31.5171 42.9661H34.4829C34.7131 42.9659 34.9368 43.0444 35.1183 43.1891C35.2997 43.3338 35.4286 43.5364 35.4843 43.7646Z" fill="url(#paint0_linear)"/>
<path d="M33 32.4325C34.6405 32.4308 36.2134 31.7644 37.3734 30.5794C38.5334 29.3945 39.1859 27.7878 39.1875 26.1121V19.7916C39.1875 18.1153 38.5356 16.5077 37.3752 15.3224C36.2148 14.1371 34.641 13.4712 33 13.4712C31.359 13.4712 29.7852 14.1371 28.6248 15.3224C27.4644 16.5077 26.8125 18.1153 26.8125 19.7916V26.1121C26.8141 27.7878 27.4666 29.3945 28.6266 30.5794C29.7866 31.7644 31.3595 32.4308 33 32.4325ZM33 15.578C34.094 15.578 35.1432 16.0219 35.9168 16.8121C36.6904 17.6023 37.125 18.6741 37.125 19.7916H34.0312V21.8984H37.125V24.0052H34.0312V26.1121H37.125C37.125 27.2296 36.6904 28.3013 35.9168 29.0915C35.1432 29.8817 34.094 30.3257 33 30.3257C31.906 30.3257 30.8568 29.8817 30.0832 29.0915C29.3096 28.3013 28.875 27.2296 28.875 26.1121H31.9688V24.0052H28.875V21.8984H31.9688V19.7916H28.875C28.875 18.6741 29.3096 17.6023 30.0832 16.8121C30.8568 16.0219 31.906 15.578 33 15.578Z" fill="url(#paint1_linear)"/>
<path d="M10.3125 36.6456H14.4375V38.7524H10.3125V36.6456Z" fill="url(#paint2_linear)"/>
<path d="M16.5 36.6456H22.6875V38.7524H16.5V36.6456Z" fill="url(#paint3_linear)"/>
<path d="M10.3125 40.8593H14.4375V42.9661H10.3125V40.8593Z" fill="url(#paint4_linear)"/>
<path d="M16.5 40.8593H22.6875V42.9661H16.5V40.8593Z" fill="url(#paint5_linear)"/>
<path d="M10.3125 45.0734H14.4375V47.1802H10.3125V45.0734Z" fill="url(#paint6_linear)"/>
<path d="M16.5 45.0734H22.6875V47.1802H16.5V45.0734Z" fill="url(#paint7_linear)"/>
<path d="M43.3125 36.6456H47.4375V38.7524H43.3125V36.6456Z" fill="url(#paint8_linear)"/>
<path d="M49.5 36.6456H55.6875V38.7524H49.5V36.6456Z" fill="url(#paint9_linear)"/>
<path d="M43.3125 40.8593H47.4375V42.9661H43.3125V40.8593Z" fill="url(#paint10_linear)"/>
<path d="M49.5 40.8593H55.6875V42.9661H49.5V40.8593Z" fill="url(#paint11_linear)"/>
<path d="M43.3125 45.0734H47.4375V47.1802H43.3125V45.0734Z" fill="url(#paint12_linear)"/>
<path d="M49.5 45.0734H55.6875V47.1802H49.5V45.0734Z" fill="url(#paint13_linear)"/>
<path d="M18.5625 28.2184H20.625V19.7911H22.6875V17.6843H20.625V15.5775H18.5625V17.6843H16.5V19.7911H18.5625V28.2184Z" fill="url(#paint14_linear)"/>
<path d="M16.5 26.1116V24.0048H14.4375V15.5775H12.375V24.0048H10.3125V26.1116H12.375V28.2184H14.4375V26.1116H16.5Z" fill="url(#paint15_linear)"/>
<path d="M53.625 15.5775H51.5625V24.0048H49.5V26.1116H51.5625V28.2184H53.625V26.1116H55.6875V24.0048H53.625V15.5775Z" fill="url(#paint16_linear)"/>
<path d="M49.5 19.7911V17.6843H47.4375V15.5775H45.375V17.6843H43.3125V19.7911H45.375V28.2184H47.4375V19.7911H49.5Z" fill="url(#paint17_linear)"/>
<path d="M62.9052 51.3938H61.8739V12.4178C61.8723 11.0214 61.3285 9.68268 60.3619 8.69528C59.3952 7.70788 58.0847 7.15243 56.7177 7.15076H9.28015C7.91313 7.15243 6.60257 7.70788 5.63594 8.69528C4.66931 9.68268 4.12554 11.0214 4.1239 12.4178V51.3938H3.09265C2.81915 51.3938 2.55684 51.5048 2.36345 51.7023C2.17005 51.8999 2.0614 52.1678 2.0614 52.4472V56.6608C2.06304 58.0572 2.60681 59.3959 3.57344 60.3833C4.54007 61.3707 5.85063 61.9262 7.21765 61.9279H58.7802C60.1472 61.9262 61.4577 61.3707 62.4244 60.3833C63.391 59.3959 63.9348 58.0572 63.9364 56.6608V52.4472C63.9364 52.1678 63.8278 51.8999 63.6344 51.7023C63.441 51.5048 63.1787 51.3938 62.9052 51.3938ZM6.1864 12.4178C6.1864 11.5796 6.51235 10.7758 7.09254 10.1832C7.67273 9.59052 8.45964 9.25757 9.28015 9.25757H56.7177C57.5382 9.25757 58.3251 9.59052 58.9053 10.1832C59.4855 10.7758 59.8114 11.5796 59.8114 12.4178V51.3938H6.1864V12.4178ZM39.5803 53.5006L38.5491 55.6074H27.4487L26.4175 53.5006H39.5803ZM61.8739 56.6608C61.8739 57.499 61.548 58.3028 60.9678 58.8954C60.3876 59.4881 59.6007 59.821 58.7802 59.821H7.21765C6.39714 59.821 5.61023 59.4881 5.03004 58.8954C4.44985 58.3028 4.1239 57.499 4.1239 56.6608V53.5006H24.1116L25.8884 57.1317C25.9741 57.3068 26.1058 57.4541 26.2689 57.557C26.4319 57.6599 26.6198 57.7143 26.8114 57.7142H39.1864C39.3789 57.7153 39.5679 57.6613 39.7319 57.5584C39.8959 57.4554 40.0285 57.3076 40.1145 57.1317L41.8862 53.5006H61.8739V56.6608Z" fill="url(#paint18_linear)"/>
<defs>
<linearGradient id="paint0_linear" x1="33" y1="0.155642" x2="33" y2="69.9775" gradientUnits="userSpaceOnUse">
<stop offset="1" stop-color="white"/>
</linearGradient>
<linearGradient id="paint1_linear" x1="33" y1="0.15615" x2="33" y2="69.978" gradientUnits="userSpaceOnUse">
<stop offset="1" stop-color="white"/>
</linearGradient>
<linearGradient id="paint2_linear" x1="59.8125" y1="35.2973" x2="59.8125" y2="174.941" gradientUnits="userSpaceOnUse">
<stop offset="1" stop-color="white"/>
</linearGradient>
<linearGradient id="paint3_linear" x1="134.063" y1="35.2973" x2="134.063" y2="174.941" gradientUnits="userSpaceOnUse">
<stop offset="1" stop-color="white"/>
</linearGradient>
<linearGradient id="paint4_linear" x1="59.8125" y1="39.5109" x2="59.8125" y2="179.155" gradientUnits="userSpaceOnUse">
<stop offset="1" stop-color="white"/>
</linearGradient>
<linearGradient id="paint5_linear" x1="134.063" y1="39.5109" x2="134.063" y2="179.155" gradientUnits="userSpaceOnUse">
<stop offset="1" stop-color="white"/>
</linearGradient>
<linearGradient id="paint6_linear" x1="59.8125" y1="43.725" x2="59.8125" y2="183.369" gradientUnits="userSpaceOnUse">
<stop offset="1" stop-color="white"/>
</linearGradient>
<linearGradient id="paint7_linear" x1="134.063" y1="43.725" x2="134.063" y2="183.369" gradientUnits="userSpaceOnUse">
<stop offset="1" stop-color="white"/>
</linearGradient>
<linearGradient id="paint8_linear" x1="224.812" y1="35.2973" x2="224.812" y2="174.941" gradientUnits="userSpaceOnUse">
<stop offset="1" stop-color="white"/>
</linearGradient>
<linearGradient id="paint9_linear" x1="365.062" y1="35.2973" x2="365.062" y2="174.941" gradientUnits="userSpaceOnUse">
<stop offset="1" stop-color="white"/>
</linearGradient>
<linearGradient id="paint10_linear" x1="224.812" y1="39.5109" x2="224.812" y2="179.155" gradientUnits="userSpaceOnUse">
<stop offset="1" stop-color="white"/>
</linearGradient>
<linearGradient id="paint11_linear" x1="365.062" y1="39.5109" x2="365.062" y2="179.155" gradientUnits="userSpaceOnUse">
<stop offset="1" stop-color="white"/>
</linearGradient>
<linearGradient id="paint12_linear" x1="224.812" y1="43.725" x2="224.812" y2="183.369" gradientUnits="userSpaceOnUse">
<stop offset="1" stop-color="white"/>
</linearGradient>
<linearGradient id="paint13_linear" x1="365.062" y1="43.725" x2="365.062" y2="183.369" gradientUnits="userSpaceOnUse">
<stop offset="1" stop-color="white"/>
</linearGradient>
<linearGradient id="paint14_linear" x1="134.063" y1="7.48736" x2="134.063" y2="845.349" gradientUnits="userSpaceOnUse">
<stop offset="1" stop-color="white"/>
</linearGradient>
<linearGradient id="paint15_linear" x1="90.75" y1="7.48736" x2="90.75" y2="845.349" gradientUnits="userSpaceOnUse">
<stop offset="1" stop-color="white"/>
</linearGradient>
<linearGradient id="paint16_linear" x1="365.062" y1="7.48736" x2="365.062" y2="845.349" gradientUnits="userSpaceOnUse">
<stop offset="1" stop-color="white"/>
</linearGradient>
<linearGradient id="paint17_linear" x1="321.75" y1="7.48736" x2="321.75" y2="845.349" gradientUnits="userSpaceOnUse">
<stop offset="1" stop-color="white"/>
</linearGradient>
<linearGradient id="paint18_linear" x1="32.9989" y1="0.156143" x2="32.9989" y2="69.978" gradientUnits="userSpaceOnUse">
<stop offset="1" stop-color="white"/>
</linearGradient>
</defs>
</svg>
