<svg width="66" height="68" viewBox="0 0 66 68" fill="none" xmlns="http://www.w3.org/2000/svg">
<g clip-path="url(#clip0)">
<path d="M12.5668 56.0208H5.15417C4.44267 56.0208 3.86511 56.6102 3.86511 57.3375V61.5511C3.86511 62.2779 4.44267 62.8679 5.15417 62.8679H12.5668C13.2788 62.8679 13.8559 62.2779 13.8559 61.5511V57.3375C13.8559 56.6102 13.2788 56.0208 12.5668 56.0208ZM11.2777 60.2344H6.44324V58.6543H11.2777V60.2344Z" fill="white"/>
<path d="M24.6377 56.0208H17.2251C16.5131 56.0208 15.936 56.6102 15.936 57.3375V61.5511C15.936 62.2779 16.5131 62.8679 17.2251 62.8679H24.6377C25.3497 62.8679 25.9268 62.2779 25.9268 61.5511V57.3375C25.9268 56.6102 25.3497 56.0208 24.6377 56.0208ZM23.3486 60.2344H18.5142V58.6543H23.3486V60.2344Z" fill="white"/>
<path d="M36.7066 56.0208H29.2935C28.582 56.0208 28.0044 56.6102 28.0044 57.3375V61.5511C28.0044 62.2779 28.582 62.8679 29.2935 62.8679H36.7066C37.4181 62.8679 37.9956 62.2779 37.9956 61.5511V57.3375C37.9956 56.6102 37.4181 56.0208 36.7066 56.0208ZM35.4175 60.2344H30.5825V58.6543H35.4175V60.2344Z" fill="white"/>
<path d="M48.7749 56.0208H41.3623C40.6503 56.0208 40.0732 56.6102 40.0732 57.3375V61.5511C40.0732 62.2779 40.6503 62.8679 41.3623 62.8679H48.7749C49.4869 62.8679 50.064 62.2779 50.064 61.5511V57.3375C50.064 56.6102 49.4869 56.0208 48.7749 56.0208ZM47.4859 60.2344H42.6514V58.6543H47.4859V60.2344Z" fill="white"/>
<path d="M60.8438 56.0208H53.4312C52.7191 56.0208 52.1421 56.6102 52.1421 57.3375V61.5511C52.1421 62.2779 52.7191 62.8679 53.4312 62.8679H60.8438C61.5553 62.8679 62.1328 62.2779 62.1328 61.5511V57.3375C62.1328 56.6102 61.5553 56.0208 60.8438 56.0208ZM59.5547 60.2344H54.7202V58.6543H59.5547V60.2344Z" fill="white"/>
<path d="M5.15417 12.8317C4.44267 12.8317 3.86511 13.4211 3.86511 14.1484V18.362C3.86511 19.0893 4.44267 19.6788 5.15417 19.6788H12.5668C13.2788 19.6788 13.8559 19.0893 13.8559 18.362V14.1484C13.8559 13.4211 13.2788 12.8317 12.5668 12.8317H5.15417ZM11.2777 17.0453H6.44324V15.4652H11.2777V17.0453Z" fill="white"/>
<path d="M17.2251 19.6788H24.6377C25.3497 19.6788 25.9268 19.0893 25.9268 18.362V14.1484C25.9268 13.4211 25.3497 12.8317 24.6377 12.8317H17.2251C16.5131 12.8317 15.936 13.4211 15.936 14.1484V18.362C15.936 19.0893 16.5131 19.6788 17.2251 19.6788ZM18.5142 15.4652H23.3486V17.0453H18.5142V15.4652Z" fill="white"/>
<path d="M36.7066 19.6788C37.4181 19.6788 37.9956 19.0893 37.9956 18.362V14.1484C37.9956 13.4211 37.4181 12.8317 36.7066 12.8317H29.2935C28.582 12.8317 28.0044 13.4211 28.0044 14.1484V18.362C28.0044 19.0893 28.582 19.6788 29.2935 19.6788H36.7066ZM30.5825 15.4652H35.4175V17.0453H30.5825V15.4652Z" fill="white"/>
<path d="M57.0036 54.7028H57.0061C57.7177 54.7028 58.2935 54.1137 58.2935 53.3868C58.2935 52.6599 57.7152 52.0708 57.0036 52.0708C56.292 52.0708 55.7152 52.6599 55.7152 53.3868C55.7152 54.1137 56.292 54.7028 57.0036 54.7028Z" fill="white"/>
<path d="M12.1019 11.5131C12.813 11.5131 13.3903 10.924 13.3903 10.1971C13.3903 9.47021 12.813 8.8811 12.1019 8.8811H12.0989C11.3878 8.8811 10.812 9.47021 10.812 10.1971C10.812 10.924 11.3903 11.5131 12.1019 11.5131Z" fill="white"/>
<path d="M63.3705 8.95845C64.1299 7.96523 64.9113 6.94525 65.7246 5.88722C66.1279 5.36309 66.0841 4.61418 65.6223 4.14303L63.5598 2.0357C63.0986 1.56455 62.3649 1.5198 61.8518 1.93129C59.7536 3.61478 57.8069 5.16352 55.9247 6.66133C54.9649 7.42566 54.0379 8.16325 53.1421 8.8777H17.2865C16.5745 8.8777 15.9975 9.46715 15.9975 10.1945C15.9975 10.9218 16.5745 11.5112 17.2865 11.5112H49.8585C49.3031 11.9597 48.7633 12.398 48.2371 12.828H41.3623C40.6503 12.828 40.0732 13.4174 40.0732 14.1447V18.3583C40.0732 18.8064 40.2928 19.2019 40.6276 19.4395C40.0783 19.9673 39.5596 20.4842 39.0712 20.9924H2.57812V12.3013C2.57812 11.8733 2.93211 11.5112 3.35156 11.5112H8.39603C9.10803 11.5112 9.68509 10.9218 9.68509 10.1945C9.68509 9.46715 9.10803 8.8777 8.39603 8.8777H3.35156C1.50357 8.8777 0 10.4136 0 12.3013V63.3914C0 65.2791 1.50357 66.815 3.35156 66.815H62.6484C64.4964 66.815 66 65.2791 66 63.3914V12.3013C66 10.6666 64.8726 9.2969 63.3705 8.95845ZM62.6484 11.5112C63.0679 11.5112 63.4219 11.8733 63.4219 12.3013V20.9924H54.1139C54.4533 20.5634 54.7988 20.1247 55.1502 19.6751H60.8438C61.5553 19.6751 62.1328 19.0857 62.1328 18.3583V14.1447C62.1328 13.4174 61.5553 12.828 60.8438 12.828H60.4178C60.6413 12.5348 60.8669 12.2395 61.095 11.9402C61.2038 11.7977 61.313 11.6542 61.4223 11.5112H62.6484ZM57.6714 16.4192C57.9162 16.1003 58.1609 15.7809 58.4056 15.4615H59.5547V17.0416H57.1926C57.3059 16.8945 57.4227 16.7433 57.5405 16.5895C57.5838 16.5329 57.6276 16.4758 57.6714 16.4192ZM57.5093 8.73882C59.1221 7.4555 60.7818 6.13462 62.5447 4.72323L62.9913 5.17946C61.6101 6.97972 60.3176 8.67453 59.0612 10.3215C58.2661 11.3646 57.5007 12.3676 56.7621 13.3336C56.7621 13.3336 56.7621 13.3341 56.7616 13.3341C55.4347 15.0685 54.4352 16.3652 53.5213 17.5379C53.5193 17.541 53.5177 17.5441 53.5152 17.5467C52.4306 18.9385 51.4079 20.2306 50.4366 21.4229C50.4109 21.4517 50.3867 21.482 50.3631 21.5129C46.0593 26.7892 42.7571 30.1191 39.4785 31.6941L36.5877 28.7412C37.3979 26.9816 38.6824 25.2158 40.4675 23.2982C40.5259 23.2458 40.5798 23.1887 40.6281 23.1264C41.7319 21.9553 43.021 20.7259 44.5019 19.4071C44.525 19.3891 44.5487 19.3711 44.5708 19.3511C45.9203 18.15 47.5317 16.7829 49.497 15.1719C49.5045 15.1657 49.5106 15.1596 49.5176 15.1534C51.8656 13.2302 54.5248 11.1141 57.5093 8.73882ZM34.7307 30.5692L37.6688 33.57C36.1436 37.1154 33.7462 38.6693 29.9158 38.5521C30.3081 37.6046 30.5845 36.6901 30.8398 35.845C31.5845 33.3807 32.0972 31.6859 34.7307 30.5692ZM42.6514 17.0416V15.4615H45.0699C44.4344 16.0016 43.8251 16.5277 43.2425 17.0416H42.6514ZM62.6484 64.1815H3.35156C2.93211 64.1815 2.57812 63.8194 2.57812 63.3914V54.7008H51.8203C52.5323 54.7008 53.1094 54.1109 53.1094 53.3841C53.1094 52.6568 52.5323 52.0673 51.8203 52.0673H2.57812V23.6254H36.7609C35.6003 25.1011 34.7135 26.5361 34.0861 27.9995C30.0392 29.578 29.1932 32.3664 28.3765 35.0683C27.9857 36.3609 27.5814 37.6982 26.8065 39.0093C26.5824 39.3879 26.5597 39.856 26.7455 40.2551C26.9313 40.6548 27.3009 40.932 27.7299 40.9937C28.6449 41.1254 29.509 41.1912 30.3252 41.1912C32.5901 41.1912 34.4865 40.6825 36.0746 39.6554C37.8355 38.5166 39.1825 36.7477 40.183 34.2587C43.9142 32.5973 47.4556 29.1383 51.9915 23.6254H63.4219V52.0668H60.7103C59.9988 52.0668 59.4212 52.6563 59.4212 53.3836C59.4212 54.1109 59.9988 54.7003 60.7103 54.7003H63.4219V63.3914C63.4219 63.8194 63.0679 64.1815 62.6484 64.1815Z" fill="white"/>
</g>
<defs>
<clipPath id="clip0">
<rect y="0.468506" width="66" height="67.418" fill="white"/>
</clipPath>
</defs>
</svg>
