<svg width="108" height="109" viewBox="0 0 108 109" fill="none" xmlns="http://www.w3.org/2000/svg">
<g clip-path="url(#clip0)">
<path d="M77.2749 49.3041L61.5045 40.1681L45.8429 31.1409C44.3202 30.2708 42.58 30.0533 41.0574 30.4884C39.5347 30.9234 38.1208 31.9023 37.2507 33.4249C36.9244 33.86 36.8157 34.4038 36.5981 34.9476C36.4894 35.2739 36.4894 35.7089 36.3806 36.144C36.3806 36.2527 36.3806 36.4702 36.3806 36.579V55.0684V73.5579C36.3806 75.298 37.1419 76.9295 38.2296 78.0171C39.4259 79.2134 40.9486 79.866 42.6888 79.866C43.6676 79.866 45.7341 78.9959 46.2779 78.6696L61.722 69.7512H61.8308L61.9395 69.6424L77.9275 60.3977C79.4501 59.5276 80.429 58.1137 80.864 56.4823C80.9728 56.156 80.9728 55.721 80.9728 55.2859C80.9728 51.6968 77.2749 49.3041 77.2749 49.3041ZM75.0997 55.721L59.3293 64.8569C59.2205 64.8569 59.1117 64.9657 59.1117 64.9657L43.6676 73.8841C43.5589 73.9929 43.0151 74.2104 42.7975 74.2104C42.58 74.2104 42.3625 74.1017 42.145 73.9929C42.0362 73.8841 41.9274 73.5579 41.9274 73.3403V54.9597V36.579V36.4702C41.9274 36.3615 41.9274 36.3615 41.9274 36.2527C41.9274 36.2527 41.9274 36.144 42.0362 36.144C42.0362 36.144 42.145 36.0352 42.145 35.9264C42.2537 35.8177 42.4713 35.7089 42.58 35.6001C42.7975 35.6001 43.0151 35.6001 43.1238 35.6001C43.2326 35.7089 43.3413 35.7089 43.4501 35.8177L58.8942 44.7361C59.003 44.8449 59.1117 44.8449 59.1117 44.8449H59.2205L74.9909 53.9808C75.2084 54.0896 75.6435 54.4159 75.6435 54.7421C75.6435 55.1772 75.3172 55.6122 75.0997 55.721Z" fill="white"/>
<path d="M92.1753 16.7844C81.7342 6.23458 67.9215 0.905273 54.1088 0.905273C40.2961 0.905273 26.4834 6.12582 15.9336 16.6757C5.38375 27.3343 0.0544434 41.147 0.0544434 54.9597C0.0544434 68.7723 5.27499 82.585 15.8248 93.1349C26.3747 103.685 40.1874 108.905 54.0001 108.905C67.8128 108.905 81.6254 103.685 92.1753 93.1349C102.725 82.585 107.946 68.7723 107.946 54.9597C107.946 41.147 102.725 27.3343 92.1753 16.7844ZM88.3686 89.2195C78.9064 98.6817 66.5076 103.467 54.1088 103.467C41.71 103.467 29.3112 98.6817 19.849 89.2195C10.278 79.7572 5.60127 67.3584 5.60127 54.9597C5.60127 42.5609 10.3868 30.1621 19.849 20.6998C29.3112 11.2376 41.71 6.4521 54.1088 6.4521C66.5076 6.4521 78.9064 11.2376 88.3686 20.6998C97.8309 30.1621 102.616 42.5609 102.616 54.9597C102.616 67.3584 97.9396 79.7572 88.3686 89.2195Z" fill="white"/>
</g>
<defs>
<clipPath id="clip0">
<rect y="0.905273" width="108" height="108" fill="white"/>
</clipPath>
</defs>
</svg>
