<svg width="66" height="68" viewBox="0 0 66 68" fill="none" xmlns="http://www.w3.org/2000/svg">
<g clip-path="url(#clip0)">
<path d="M60.5 16.1994V12.8285C60.4962 9.72695 58.0363 7.21414 55 7.2103H28.0162L27.2701 4.54277C26.588 2.13585 24.4342 0.476736 21.9812 0.468506H5.5C2.46372 0.472346 0.00375977 2.98516 0 6.08667V62.2683C0.00375977 65.3698 2.46372 67.8826 5.5 67.8865H60.5C63.5363 67.8826 65.9962 65.3698 66 62.2683V21.8175C65.9962 18.716 63.5363 16.2032 60.5 16.1994ZM55 9.45757C56.8224 9.45757 58.3 10.9669 58.3 12.8285V16.1994H33.0188C31.5471 16.1939 30.2548 15.1981 29.845 13.7546L28.644 9.45757H55ZM63.8 62.2683C63.8 64.1299 62.3224 65.6392 60.5 65.6392H5.5C3.67759 65.6392 2.2 64.1299 2.2 62.2683V6.08667C2.2 4.2251 3.67759 2.71577 5.5 2.71577H21.9812C23.4529 2.72126 24.7452 3.71706 25.155 5.16055L27.7299 14.3746C28.4131 16.7804 30.5664 18.4384 33.0188 18.4466H60.5C62.3224 18.4466 63.8 19.956 63.8 21.8175V62.2683Z" fill="white"/>
<path d="M39.6 34.1776C41.4225 34.1776 42.9 32.6683 42.9 30.8067C42.9 28.9451 41.4225 27.4358 39.6 27.4358C37.7776 27.4358 36.3 28.9451 36.3 30.8067C36.3 32.6683 37.7776 34.1776 39.6 34.1776ZM39.6 29.6831C40.2075 29.6831 40.7 30.1862 40.7 30.8067C40.7 31.4272 40.2075 31.9303 39.6 31.9303C38.9926 31.9303 38.5 31.4272 38.5 30.8067C38.5 30.1862 38.9926 29.6831 39.6 29.6831Z" fill="white"/>
<path d="M25.2999 30.8067C25.2999 28.9451 23.8224 27.4358 21.9999 27.4358C20.1775 27.4358 18.7 28.9451 18.7 30.8067C18.7 32.6683 20.1775 34.1776 21.9999 34.1776C23.8224 34.1776 25.2999 32.6683 25.2999 30.8067ZM20.9 30.8067C20.9 30.1862 21.3925 29.6831 21.9999 29.6831C22.6074 29.6831 23.0999 30.1862 23.0999 30.8067C23.0999 31.4272 22.6074 31.9303 21.9999 31.9303C21.3925 31.9303 20.9 31.4272 20.9 30.8067Z" fill="white"/>
<path d="M34.1 61.1447V56.6502H36.3V52.1556H42.9V48.7847H45.9798L55 52.7367V35.8438L45.9798 39.7957H42.9V37.9023C45.7225 36.5411 47.4627 33.5757 47.308 30.3913C47.1533 27.2069 45.1338 24.4319 42.1931 23.3631C39.2525 22.2943 35.9713 23.142 33.8819 25.5105C31.7926 27.879 31.3075 31.301 32.6535 34.1775H28.9464C29.4416 33.1258 29.6989 31.9736 29.7 30.8066C29.7053 26.9079 26.914 23.5941 23.1397 23.0169C19.3649 22.4403 15.7464 24.7742 14.6341 28.5034C13.5222 32.2326 15.2517 36.2317 18.7 37.9023V39.7957H14.3V48.7847H18.7V52.1556H25.3V56.6502H27.5V61.1447H34.1ZM31.9 58.8974H29.7V56.6502H31.9V58.8974ZM52.8 49.3274L47.3 46.9204V41.66L52.8 39.2531V49.3274ZM45.1 42.0429V46.5375H42.9V42.0429H45.1ZM39.6 25.1885C42.6373 25.1885 45.1 27.704 45.1 30.8066C45.1 33.9092 42.6373 36.4248 39.6 36.4248C36.5626 36.4248 34.1 33.9092 34.1 30.8066C34.1037 27.7051 36.5637 25.1923 39.6 25.1885ZM16.5 30.8066C16.5 27.704 18.9626 25.1885 22 25.1885C25.0373 25.1885 27.5 27.704 27.5 30.8066C27.5 33.9092 25.0373 36.4248 22 36.4248C18.9637 36.4209 16.5037 33.9081 16.5 30.8066ZM16.5 46.5375V42.0429H18.7V46.5375H16.5ZM20.9 49.9084V38.5821C23.2724 38.9557 25.6776 38.1547 27.3791 36.4248H34.2208C35.9224 38.1547 38.3276 38.9557 40.7 38.5821V49.9084H20.9ZM27.5 52.1556H34.1V54.4029H27.5V52.1556Z" fill="white"/>
<path d="M36.3001 38.672H25.3V45.4138H36.3001V38.672ZM34.1001 43.1665H27.5V40.9193H34.1001V43.1665Z" fill="white"/>
</g>
<defs>
<clipPath id="clip0">
<rect y="0.468506" width="66" height="67.418" fill="white"/>
</clipPath>
</defs>
</svg>
