<svg width="79" height="80" viewBox="0 0 79 80" fill="none" xmlns="http://www.w3.org/2000/svg">
<path d="M56.5252 36.1865L44.9895 29.4812L33.5333 22.8557C32.4195 22.2171 31.1466 22.0575 30.0328 22.3768C28.919 22.6961 27.8847 23.4146 27.2483 24.5321C27.0096 24.8514 26.9301 25.2505 26.7709 25.6497C26.6914 25.8891 26.6914 26.2084 26.6118 26.5277C26.6118 26.6075 26.6118 26.7672 26.6118 26.847V40.4172V53.9875C26.6118 55.2646 27.1687 56.4621 27.9643 57.2603C28.8394 58.1383 29.9532 58.6173 31.2261 58.6173C31.9421 58.6173 33.4537 57.9787 33.8515 57.7392L45.1486 51.1936H45.2282L45.3077 51.1137L57.0026 44.3286C58.1164 43.69 58.8324 42.6523 59.1506 41.4549C59.2302 41.2155 59.2302 40.8962 59.2302 40.5768C59.2302 37.9426 56.5252 36.1865 56.5252 36.1865ZM54.9341 40.8962L43.3984 47.6014C43.3188 47.6014 43.2392 47.6813 43.2392 47.6813L31.9421 54.2269C31.8626 54.3068 31.4648 54.4664 31.3057 54.4664C31.1466 54.4664 30.9875 54.3866 30.8284 54.3068C30.7488 54.2269 30.6692 53.9875 30.6692 53.8278V40.3374V26.847V26.7672C30.6692 26.6874 30.6692 26.6874 30.6692 26.6075C30.6692 26.6075 30.6692 26.5277 30.7488 26.5277C30.7488 26.5277 30.8284 26.4479 30.8284 26.368C30.9079 26.2883 31.0671 26.2084 31.1466 26.1286C31.3057 26.1286 31.4648 26.1286 31.5443 26.1286C31.6239 26.2084 31.7034 26.2084 31.783 26.2883L43.0801 32.8339C43.1597 32.9137 43.2392 32.9137 43.2392 32.9137H43.3188L54.8545 39.619C55.0136 39.6988 55.3319 39.9383 55.3319 40.1777C55.3319 40.4971 55.0932 40.8163 54.9341 40.8962Z" fill="white"/>
<path d="M67.4245 12.3188C59.787 4.57585 49.6833 0.664429 39.5796 0.664429C29.4758 0.664429 19.3721 4.49602 11.6551 12.2391C3.93808 20.0619 0.0397949 30.1996 0.0397949 40.3374C0.0397949 50.4751 3.85853 60.6129 11.5755 68.3559C19.2926 76.0991 29.3963 79.9303 39.5 79.9303C49.6038 79.9303 59.7074 76.0991 67.4245 68.3559C75.1414 60.6129 78.9605 50.4751 78.9605 40.3374C78.9605 30.1996 75.1414 20.0619 67.4245 12.3188ZM64.64 65.4822C57.7185 72.4269 48.649 75.9391 39.5796 75.9391C30.5101 75.9391 21.4406 72.4269 14.5191 65.4822C7.51814 58.5374 4.0972 49.4374 4.0972 40.3374C4.0972 31.2374 7.59772 22.1373 14.5191 15.1925C21.4406 8.24779 30.5101 4.73549 39.5796 4.73549C48.649 4.73549 57.7185 8.24779 64.64 15.1925C71.5615 22.1373 75.0617 31.2374 75.0617 40.3374C75.0617 49.4374 71.641 58.5374 64.64 65.4822Z" fill="white"/>
</svg>
